<?xml version="1.0" encoding="UTF-8" standalone="no"?>
<!DOCTYPE svg PUBLIC "-//W3C//DTD SVG 1.1//EN"
 "http://www.w3.org/Graphics/SVG/1.1/DTD/svg11.dtd">
<!-- Generated by graphviz version 2.47.3 (20210619.1520)
 -->
<!-- Title: dependencies Pages: 1 -->
<svg width="206pt" height="174pt"
 viewBox="0.00 0.00 206.00 173.80" xmlns="http://www.w3.org/2000/svg" xmlns:xlink="http://www.w3.org/1999/xlink">
<g id="graph0" class="graph" transform="scale(1 1) rotate(0) translate(4 169.8)">
<title>dependencies</title>
<polygon fill="white" stroke="transparent" points="-4,4 -4,-169.8 202,-169.8 202,4 -4,4"/>
<text text-anchor="middle" x="99" y="-8.2" font-family="sans-serif" font-size="14.00">dependencies</text>
<g id="clust1" class="cluster">
<title>cluster_HomePageRoutingModule</title>
<polygon fill="none" stroke="black" stroke-dasharray="1,5" points="8,-32.8 8,-157.8 190,-157.8 190,-32.8 8,-32.8"/>
</g>
<g id="clust6" class="cluster">
<title>cluster_HomePageRoutingModule_providers</title>
<polygon fill="none" stroke="black" points="27,-40.8 27,-92.8 171,-92.8 171,-40.8 27,-40.8"/>
</g>
<!-- TimerService -->
<g id="node1" class="node">
<title>TimerService</title>
<ellipse fill="#fdb462" stroke="black" cx="99" cy="-66.8" rx="63.68" ry="18"/>
<text text-anchor="middle" x="99" y="-62.6" font-family="Times,serif" font-size="14.00">TimerService</text>
</g>
<!-- HomePageRoutingModule -->
<g id="node2" class="node">
<title>HomePageRoutingModule</title>
<polygon fill="#8dd3c7" stroke="black" points="182.09,-149.8 179.09,-153.8 158.09,-153.8 155.09,-149.8 15.91,-149.8 15.91,-113.8 182.09,-113.8 182.09,-149.8"/>
<text text-anchor="middle" x="99" y="-127.6" font-family="Times,serif" font-size="14.00">HomePageRoutingModule</text>
</g>
<!-- TimerService&#45;&gt;HomePageRoutingModule -->
<g id="edge1" class="edge">
<title>TimerService&#45;&gt;HomePageRoutingModule</title>
<path fill="none" stroke="black" d="M99,-84.91C99,-84.91 99,-103.79 99,-103.79"/>
<polygon fill="black" stroke="black" points="95.5,-103.79 99,-113.79 102.5,-103.79 95.5,-103.79"/>
</g>
</g>
</svg>
