<?xml version="1.0" encoding="UTF-8" standalone="no"?>
<!DOCTYPE svg PUBLIC "-//W3C//DTD SVG 1.1//EN"
 "http://www.w3.org/Graphics/SVG/1.1/DTD/svg11.dtd">
<!-- Generated by graphviz version 2.47.0 (20210316.0004)
 -->
<!-- Title: dependencies Pages: 1 -->
<svg width="813pt" height="295pt"
 viewBox="0.00 0.00 813.00 295.00" xmlns="http://www.w3.org/2000/svg" xmlns:xlink="http://www.w3.org/1999/xlink">
<g id="graph0" class="graph" transform="scale(1 1) rotate(0) translate(4 291)">
<title>dependencies</title>
<polygon fill="white" stroke="transparent" points="-4,4 -4,-291 809,-291 809,4 -4,4"/>
<text text-anchor="start" x="381.51" y="-42.4" font-family="sans-serif" font-weight="bold" font-size="14.00">Legend</text>
<polygon fill="#ffffb3" stroke="transparent" points="168.5,-10 168.5,-30 188.5,-30 188.5,-10 168.5,-10"/>
<text text-anchor="start" x="192.13" y="-15.4" font-family="sans-serif" font-size="14.00"> &#160;Declarations</text>
<polygon fill="#8dd3c7" stroke="transparent" points="281.5,-10 281.5,-30 301.5,-30 301.5,-10 281.5,-10"/>
<text text-anchor="start" x="305.23" y="-15.4" font-family="sans-serif" font-size="14.00"> &#160;Module</text>
<polygon fill="#80b1d3" stroke="transparent" points="367.5,-10 367.5,-30 387.5,-30 387.5,-10 367.5,-10"/>
<text text-anchor="start" x="391.28" y="-15.4" font-family="sans-serif" font-size="14.00"> &#160;Bootstrap</text>
<polygon fill="#fdb462" stroke="transparent" points="464.5,-10 464.5,-30 484.5,-30 484.5,-10 464.5,-10"/>
<text text-anchor="start" x="488.17" y="-15.4" font-family="sans-serif" font-size="14.00"> &#160;Providers</text>
<polygon fill="#fb8072" stroke="transparent" points="560.5,-10 560.5,-30 580.5,-30 580.5,-10 560.5,-10"/>
<text text-anchor="start" x="584.23" y="-15.4" font-family="sans-serif" font-size="14.00"> &#160;Exports</text>
<g id="clust1" class="cluster">
<title>cluster_AppModule</title>
<polygon fill="none" stroke="black" stroke-dasharray="1,5" points="8,-70 8,-279 298,-279 298,-70 8,-70"/>
</g>
<g id="clust2" class="cluster">
<title>cluster_AppModule_declarations</title>
<polygon fill="none" stroke="black" points="168,-78 168,-130 290,-130 290,-78 168,-78"/>
</g>
<g id="clust4" class="cluster">
<title>cluster_AppModule_imports</title>
<polygon fill="none" stroke="black" points="16,-78 16,-130 160,-130 160,-78 16,-78"/>
</g>
<g id="clust6" class="cluster">
<title>cluster_AppModule_bootstrap</title>
<polygon fill="none" stroke="black" points="96,-219 96,-271 220,-271 220,-219 96,-219"/>
</g>
<g id="clust14" class="cluster">
<title>cluster_HomePageModule</title>
<polygon fill="none" stroke="black" stroke-dasharray="1,5" points="306,-146 306,-271 797,-271 797,-146 306,-146"/>
</g>
<g id="clust15" class="cluster">
<title>cluster_HomePageModule_declarations</title>
<polygon fill="none" stroke="black" points="504,-154 504,-206 789,-206 789,-154 504,-154"/>
</g>
<g id="clust18" class="cluster">
<title>cluster_HomePageModule_imports</title>
<polygon fill="none" stroke="black" points="314,-154 314,-206 496,-206 496,-154 314,-154"/>
</g>
<g id="clust22" class="cluster">
<title>cluster_HomePageRoutingModule</title>
<polygon fill="none" stroke="black" stroke-dasharray="1,5" points="325,-70 325,-138 485,-138 485,-70 325,-70"/>
</g>
<g id="clust27" class="cluster">
<title>cluster_HomePageRoutingModule_providers</title>
<polygon fill="none" stroke="black" points="333,-78 333,-130 477,-130 477,-78 333,-78"/>
</g>
<!-- AppComponent -->
<g id="node1" class="node">
<title>AppComponent</title>
<polygon fill="#ffffb3" stroke="black" points="281.94,-122 176.06,-122 176.06,-86 281.94,-86 281.94,-122"/>
<text text-anchor="middle" x="229" y="-99.8" font-family="Times,serif" font-size="14.00">AppComponent</text>
</g>
<!-- AppModule -->
<g id="node2" class="node">
<title>AppModule</title>
<polygon fill="#8dd3c7" stroke="black" points="199.66,-198 196.66,-202 175.66,-202 172.66,-198 116.34,-198 116.34,-162 199.66,-162 199.66,-198"/>
<text text-anchor="middle" x="158" y="-175.8" font-family="Times,serif" font-size="14.00">AppModule</text>
</g>
<!-- AppComponent&#45;&gt;AppModule -->
<g id="edge1" class="edge">
<title>AppComponent&#45;&gt;AppModule</title>
<path fill="none" stroke="black" d="M188.05,-122.01C188.05,-122.01 188.05,-151.85 188.05,-151.85"/>
<polygon fill="black" stroke="black" points="184.55,-151.85 188.05,-161.85 191.55,-151.85 184.55,-151.85"/>
</g>
<!-- AppComponent  -->
<g id="node4" class="node">
<title>AppComponent </title>
<polygon fill="#80b1d3" stroke="black" points="212.44,-263 103.56,-263 103.56,-227 212.44,-227 212.44,-263"/>
<text text-anchor="middle" x="158" y="-240.8" font-family="Times,serif" font-size="14.00">AppComponent </text>
</g>
<!-- AppModule&#45;&gt;AppComponent  -->
<g id="edge3" class="edge">
<title>AppModule&#45;&gt;AppComponent </title>
<path fill="none" stroke="black" stroke-dasharray="1,5" d="M158,-198.11C158,-198.11 158,-216.99 158,-216.99"/>
<polygon fill="black" stroke="black" points="154.5,-216.99 158,-226.99 161.5,-216.99 154.5,-216.99"/>
</g>
<!-- AppRoutingModule -->
<g id="node3" class="node">
<title>AppRoutingModule</title>
<polygon fill="#8dd3c7" stroke="black" points="152.27,-122 149.27,-126 128.27,-126 125.27,-122 23.73,-122 23.73,-86 152.27,-86 152.27,-122"/>
<text text-anchor="middle" x="88" y="-99.8" font-family="Times,serif" font-size="14.00">AppRoutingModule</text>
</g>
<!-- AppRoutingModule&#45;&gt;AppModule -->
<g id="edge2" class="edge">
<title>AppRoutingModule&#45;&gt;AppModule</title>
<path fill="none" stroke="black" d="M134.28,-122.01C134.28,-122.01 134.28,-151.85 134.28,-151.85"/>
<polygon fill="black" stroke="black" points="130.78,-151.85 134.28,-161.85 137.78,-151.85 130.78,-151.85"/>
</g>
<!-- HomePage -->
<g id="node5" class="node">
<title>HomePage</title>
<polygon fill="#ffffb3" stroke="black" points="780.92,-198 703.08,-198 703.08,-162 780.92,-162 780.92,-198"/>
<text text-anchor="middle" x="742" y="-175.8" font-family="Times,serif" font-size="14.00">HomePage</text>
</g>
<!-- HomePageModule -->
<g id="node7" class="node">
<title>HomePageModule</title>
<polygon fill="#8dd3c7" stroke="black" points="659.47,-263 656.47,-267 635.47,-267 632.47,-263 538.53,-263 538.53,-227 659.47,-227 659.47,-263"/>
<text text-anchor="middle" x="599" y="-240.8" font-family="Times,serif" font-size="14.00">HomePageModule</text>
</g>
<!-- HomePage&#45;&gt;HomePageModule -->
<g id="edge4" class="edge">
<title>HomePage&#45;&gt;HomePageModule</title>
<path fill="none" stroke="black" d="M742,-198.11C742,-217.34 742,-245 742,-245 742,-245 669.64,-245 669.64,-245"/>
<polygon fill="black" stroke="black" points="669.64,-241.5 659.64,-245 669.64,-248.5 669.64,-241.5"/>
</g>
<!-- SettingsPopoverComponent -->
<g id="node6" class="node">
<title>SettingsPopoverComponent</title>
<polygon fill="#ffffb3" stroke="black" points="685.6,-198 512.4,-198 512.4,-162 685.6,-162 685.6,-198"/>
<text text-anchor="middle" x="599" y="-175.8" font-family="Times,serif" font-size="14.00">SettingsPopoverComponent</text>
</g>
<!-- SettingsPopoverComponent&#45;&gt;HomePageModule -->
<g id="edge5" class="edge">
<title>SettingsPopoverComponent&#45;&gt;HomePageModule</title>
<path fill="none" stroke="black" d="M599,-198.11C599,-198.11 599,-216.99 599,-216.99"/>
<polygon fill="black" stroke="black" points="595.5,-216.99 599,-226.99 602.5,-216.99 595.5,-216.99"/>
</g>
<!-- HomePageRoutingModule -->
<g id="node8" class="node">
<title>HomePageRoutingModule</title>
<polygon fill="#8dd3c7" stroke="black" points="488.09,-198 485.09,-202 464.09,-202 461.09,-198 321.91,-198 321.91,-162 488.09,-162 488.09,-198"/>
<text text-anchor="middle" x="405" y="-175.8" font-family="Times,serif" font-size="14.00">HomePageRoutingModule</text>
</g>
<!-- HomePageRoutingModule&#45;&gt;HomePageModule -->
<g id="edge6" class="edge">
<title>HomePageRoutingModule&#45;&gt;HomePageModule</title>
<path fill="none" stroke="black" d="M405,-198.11C405,-217.34 405,-245 405,-245 405,-245 528.42,-245 528.42,-245"/>
<polygon fill="black" stroke="black" points="528.42,-248.5 538.42,-245 528.42,-241.5 528.42,-248.5"/>
</g>
<!-- TimerService -->
<g id="node9" class="node">
<title>TimerService</title>
<ellipse fill="#fdb462" stroke="black" cx="405" cy="-104" rx="63.68" ry="18"/>
<text text-anchor="middle" x="405" y="-99.8" font-family="Times,serif" font-size="14.00">TimerService</text>
</g>
<!-- TimerService&#45;&gt;HomePageRoutingModule -->
<g id="edge7" class="edge">
<title>TimerService&#45;&gt;HomePageRoutingModule</title>
<path fill="none" stroke="black" d="M405,-122.01C405,-122.01 405,-151.85 405,-151.85"/>
<polygon fill="black" stroke="black" points="401.5,-151.85 405,-161.85 408.5,-151.85 401.5,-151.85"/>
</g>
</g>
</svg>
