<?xml version="1.0" encoding="UTF-8" standalone="no"?>
<!DOCTYPE svg PUBLIC "-//W3C//DTD SVG 1.1//EN"
 "http://www.w3.org/Graphics/SVG/1.1/DTD/svg11.dtd">
<!-- Generated by graphviz version 2.47.3 (20210619.1520)
 -->
<!-- Title: dependencies Pages: 1 -->
<svg width="813pt" height="258pt"
 viewBox="0.00 0.00 813.00 257.80" xmlns="http://www.w3.org/2000/svg" xmlns:xlink="http://www.w3.org/1999/xlink">
<g id="graph0" class="graph" transform="scale(1 1) rotate(0) translate(4 253.8)">
<title>dependencies</title>
<polygon fill="white" stroke="transparent" points="-4,4 -4,-253.8 809,-253.8 809,4 -4,4"/>
<text text-anchor="middle" x="402.5" y="-8.2" font-family="sans-serif" font-size="14.00">dependencies</text>
<g id="clust1" class="cluster">
<title>cluster_AppModule</title>
<polygon fill="none" stroke="black" stroke-dasharray="1,5" points="8,-32.8 8,-241.8 298,-241.8 298,-32.8 8,-32.8"/>
</g>
<g id="clust2" class="cluster">
<title>cluster_AppModule_declarations</title>
<polygon fill="none" stroke="black" points="168,-40.8 168,-92.8 290,-92.8 290,-40.8 168,-40.8"/>
</g>
<g id="clust4" class="cluster">
<title>cluster_AppModule_imports</title>
<polygon fill="none" stroke="black" points="16,-40.8 16,-92.8 160,-92.8 160,-40.8 16,-40.8"/>
</g>
<g id="clust6" class="cluster">
<title>cluster_AppModule_bootstrap</title>
<polygon fill="none" stroke="black" points="96,-181.8 96,-233.8 220,-233.8 220,-181.8 96,-181.8"/>
</g>
<g id="clust14" class="cluster">
<title>cluster_HomePageModule</title>
<polygon fill="none" stroke="black" stroke-dasharray="1,5" points="306,-108.8 306,-233.8 797,-233.8 797,-108.8 306,-108.8"/>
</g>
<g id="clust15" class="cluster">
<title>cluster_HomePageModule_declarations</title>
<polygon fill="none" stroke="black" points="504,-116.8 504,-168.8 789,-168.8 789,-116.8 504,-116.8"/>
</g>
<g id="clust18" class="cluster">
<title>cluster_HomePageModule_imports</title>
<polygon fill="none" stroke="black" points="314,-116.8 314,-168.8 496,-168.8 496,-116.8 314,-116.8"/>
</g>
<g id="clust22" class="cluster">
<title>cluster_HomePageRoutingModule</title>
<polygon fill="none" stroke="black" stroke-dasharray="1,5" points="325,-32.8 325,-100.8 485,-100.8 485,-32.8 325,-32.8"/>
</g>
<g id="clust27" class="cluster">
<title>cluster_HomePageRoutingModule_providers</title>
<polygon fill="none" stroke="black" points="333,-40.8 333,-92.8 477,-92.8 477,-40.8 333,-40.8"/>
</g>
<!-- AppComponent -->
<g id="node1" class="node">
<title>AppComponent</title>
<polygon fill="#ffffb3" stroke="black" points="281.94,-84.8 176.06,-84.8 176.06,-48.8 281.94,-48.8 281.94,-84.8"/>
<text text-anchor="middle" x="229" y="-62.6" font-family="Times,serif" font-size="14.00">AppComponent</text>
</g>
<!-- AppModule -->
<g id="node2" class="node">
<title>AppModule</title>
<polygon fill="#8dd3c7" stroke="black" points="199.66,-160.8 196.66,-164.8 175.66,-164.8 172.66,-160.8 116.34,-160.8 116.34,-124.8 199.66,-124.8 199.66,-160.8"/>
<text text-anchor="middle" x="158" y="-138.6" font-family="Times,serif" font-size="14.00">AppModule</text>
</g>
<!-- AppComponent&#45;&gt;AppModule -->
<g id="edge1" class="edge">
<title>AppComponent&#45;&gt;AppModule</title>
<path fill="none" stroke="black" d="M188.05,-84.81C188.05,-84.81 188.05,-114.65 188.05,-114.65"/>
<polygon fill="black" stroke="black" points="184.55,-114.65 188.05,-124.65 191.55,-114.65 184.55,-114.65"/>
</g>
<!-- AppComponent  -->
<g id="node4" class="node">
<title>AppComponent </title>
<polygon fill="#80b1d3" stroke="black" points="212.44,-225.8 103.56,-225.8 103.56,-189.8 212.44,-189.8 212.44,-225.8"/>
<text text-anchor="middle" x="158" y="-203.6" font-family="Times,serif" font-size="14.00">AppComponent </text>
</g>
<!-- AppModule&#45;&gt;AppComponent  -->
<g id="edge3" class="edge">
<title>AppModule&#45;&gt;AppComponent </title>
<path fill="none" stroke="black" stroke-dasharray="1,5" d="M158,-160.91C158,-160.91 158,-179.79 158,-179.79"/>
<polygon fill="black" stroke="black" points="154.5,-179.79 158,-189.79 161.5,-179.79 154.5,-179.79"/>
</g>
<!-- AppRoutingModule -->
<g id="node3" class="node">
<title>AppRoutingModule</title>
<polygon fill="#8dd3c7" stroke="black" points="152.27,-84.8 149.27,-88.8 128.27,-88.8 125.27,-84.8 23.73,-84.8 23.73,-48.8 152.27,-48.8 152.27,-84.8"/>
<text text-anchor="middle" x="88" y="-62.6" font-family="Times,serif" font-size="14.00">AppRoutingModule</text>
</g>
<!-- AppRoutingModule&#45;&gt;AppModule -->
<g id="edge2" class="edge">
<title>AppRoutingModule&#45;&gt;AppModule</title>
<path fill="none" stroke="black" d="M134.28,-84.81C134.28,-84.81 134.28,-114.65 134.28,-114.65"/>
<polygon fill="black" stroke="black" points="130.78,-114.65 134.28,-124.65 137.78,-114.65 130.78,-114.65"/>
</g>
<!-- HomePage -->
<g id="node5" class="node">
<title>HomePage</title>
<polygon fill="#ffffb3" stroke="black" points="780.92,-160.8 703.08,-160.8 703.08,-124.8 780.92,-124.8 780.92,-160.8"/>
<text text-anchor="middle" x="742" y="-138.6" font-family="Times,serif" font-size="14.00">HomePage</text>
</g>
<!-- HomePageModule -->
<g id="node7" class="node">
<title>HomePageModule</title>
<polygon fill="#8dd3c7" stroke="black" points="659.47,-225.8 656.47,-229.8 635.47,-229.8 632.47,-225.8 538.53,-225.8 538.53,-189.8 659.47,-189.8 659.47,-225.8"/>
<text text-anchor="middle" x="599" y="-203.6" font-family="Times,serif" font-size="14.00">HomePageModule</text>
</g>
<!-- HomePage&#45;&gt;HomePageModule -->
<g id="edge4" class="edge">
<title>HomePage&#45;&gt;HomePageModule</title>
<path fill="none" stroke="black" d="M742,-160.91C742,-180.14 742,-207.8 742,-207.8 742,-207.8 669.64,-207.8 669.64,-207.8"/>
<polygon fill="black" stroke="black" points="669.64,-204.3 659.64,-207.8 669.64,-211.3 669.64,-204.3"/>
</g>
<!-- SettingsPopoverComponent -->
<g id="node6" class="node">
<title>SettingsPopoverComponent</title>
<polygon fill="#ffffb3" stroke="black" points="685.6,-160.8 512.4,-160.8 512.4,-124.8 685.6,-124.8 685.6,-160.8"/>
<text text-anchor="middle" x="599" y="-138.6" font-family="Times,serif" font-size="14.00">SettingsPopoverComponent</text>
</g>
<!-- SettingsPopoverComponent&#45;&gt;HomePageModule -->
<g id="edge5" class="edge">
<title>SettingsPopoverComponent&#45;&gt;HomePageModule</title>
<path fill="none" stroke="black" d="M599,-160.91C599,-160.91 599,-179.79 599,-179.79"/>
<polygon fill="black" stroke="black" points="595.5,-179.79 599,-189.79 602.5,-179.79 595.5,-179.79"/>
</g>
<!-- HomePageRoutingModule -->
<g id="node8" class="node">
<title>HomePageRoutingModule</title>
<polygon fill="#8dd3c7" stroke="black" points="488.09,-160.8 485.09,-164.8 464.09,-164.8 461.09,-160.8 321.91,-160.8 321.91,-124.8 488.09,-124.8 488.09,-160.8"/>
<text text-anchor="middle" x="405" y="-138.6" font-family="Times,serif" font-size="14.00">HomePageRoutingModule</text>
</g>
<!-- HomePageRoutingModule&#45;&gt;HomePageModule -->
<g id="edge6" class="edge">
<title>HomePageRoutingModule&#45;&gt;HomePageModule</title>
<path fill="none" stroke="black" d="M405,-160.91C405,-180.14 405,-207.8 405,-207.8 405,-207.8 528.42,-207.8 528.42,-207.8"/>
<polygon fill="black" stroke="black" points="528.42,-211.3 538.42,-207.8 528.42,-204.3 528.42,-211.3"/>
</g>
<!-- TimerService -->
<g id="node9" class="node">
<title>TimerService</title>
<ellipse fill="#fdb462" stroke="black" cx="405" cy="-66.8" rx="63.68" ry="18"/>
<text text-anchor="middle" x="405" y="-62.6" font-family="Times,serif" font-size="14.00">TimerService</text>
</g>
<!-- TimerService&#45;&gt;HomePageRoutingModule -->
<g id="edge7" class="edge">
<title>TimerService&#45;&gt;HomePageRoutingModule</title>
<path fill="none" stroke="black" d="M405,-84.81C405,-84.81 405,-114.65 405,-114.65"/>
<polygon fill="black" stroke="black" points="401.5,-114.65 405,-124.65 408.5,-114.65 401.5,-114.65"/>
</g>
</g>
</svg>
