<?xml version="1.0" encoding="UTF-8" standalone="no"?>
<!DOCTYPE svg PUBLIC "-//W3C//DTD SVG 1.1//EN"
 "http://www.w3.org/Graphics/SVG/1.1/DTD/svg11.dtd">
<!-- Generated by graphviz version 2.47.3 (20210619.1520)
 -->
<!-- Title: dependencies Pages: 1 -->
<svg width="813pt" height="258pt"
 viewBox="0.00 0.00 813.00 257.80" xmlns="http://www.w3.org/2000/svg" xmlns:xlink="http://www.w3.org/1999/xlink">
<g id="graph0" class="graph" transform="scale(1 1) rotate(0) translate(4 253.8)">
<title>dependencies</title>
<polygon fill="white" stroke="transparent" points="-4,4 -4,-253.8 809,-253.8 809,4 -4,4"/>
<text text-anchor="middle" x="402.5" y="-8.2" font-family="sans-serif" font-size="14.00">dependencies</text>
<g id="clust14" class="cluster">
<title>cluster_HomePageModule</title>
<polygon fill="none" stroke="black" stroke-dasharray="1,5" points="306,-108.8 306,-233.8 797,-233.8 797,-108.8 306,-108.8"/>
</g>
<g id="clust18" class="cluster">
<title>cluster_HomePageModule_imports</title>
<polygon fill="none" stroke="black" points="607,-116.8 607,-168.8 789,-168.8 789,-116.8 607,-116.8"/>
</g>
<g id="clust15" class="cluster">
<title>cluster_HomePageModule_declarations</title>
<polygon fill="none" stroke="black" points="314,-116.8 314,-168.8 599,-168.8 599,-116.8 314,-116.8"/>
</g>
<g id="clust1" class="cluster">
<title>cluster_AppModule</title>
<polygon fill="none" stroke="black" stroke-dasharray="1,5" points="8,-32.8 8,-241.8 298,-241.8 298,-32.8 8,-32.8"/>
</g>
<g id="clust4" class="cluster">
<title>cluster_AppModule_imports</title>
<polygon fill="none" stroke="black" points="146,-40.8 146,-92.8 290,-92.8 290,-40.8 146,-40.8"/>
</g>
<g id="clust6" class="cluster">
<title>cluster_AppModule_bootstrap</title>
<polygon fill="none" stroke="black" points="86,-181.8 86,-233.8 210,-233.8 210,-181.8 86,-181.8"/>
</g>
<g id="clust2" class="cluster">
<title>cluster_AppModule_declarations</title>
<polygon fill="none" stroke="black" points="16,-40.8 16,-92.8 138,-92.8 138,-40.8 16,-40.8"/>
</g>
<g id="clust22" class="cluster">
<title>cluster_HomePageRoutingModule</title>
<polygon fill="none" stroke="black" stroke-dasharray="1,5" points="618,-32.8 618,-100.8 778,-100.8 778,-32.8 618,-32.8"/>
</g>
<g id="clust27" class="cluster">
<title>cluster_HomePageRoutingModule_providers</title>
<polygon fill="none" stroke="black" points="626,-40.8 626,-92.8 770,-92.8 770,-40.8 626,-40.8"/>
</g>
<!-- AppComponent -->
<g id="node1" class="node">
<title>AppComponent</title>
<polygon fill="#ffffb3" stroke="black" points="129.94,-84.8 24.06,-84.8 24.06,-48.8 129.94,-48.8 129.94,-84.8"/>
<text text-anchor="middle" x="77" y="-62.6" font-family="Times,serif" font-size="14.00">AppComponent</text>
</g>
<!-- AppModule -->
<g id="node2" class="node">
<title>AppModule</title>
<polygon fill="#8dd3c7" stroke="black" points="189.66,-160.8 186.66,-164.8 165.66,-164.8 162.66,-160.8 106.34,-160.8 106.34,-124.8 189.66,-124.8 189.66,-160.8"/>
<text text-anchor="middle" x="148" y="-138.6" font-family="Times,serif" font-size="14.00">AppModule</text>
</g>
<!-- AppComponent&#45;&gt;AppModule -->
<g id="edge1" class="edge">
<title>AppComponent&#45;&gt;AppModule</title>
<path fill="none" stroke="black" d="M117.95,-84.81C117.95,-84.81 117.95,-114.65 117.95,-114.65"/>
<polygon fill="black" stroke="black" points="114.45,-114.65 117.95,-124.65 121.45,-114.65 114.45,-114.65"/>
</g>
<!-- AppComponent  -->
<g id="node4" class="node">
<title>AppComponent </title>
<polygon fill="#80b1d3" stroke="black" points="202.44,-225.8 93.56,-225.8 93.56,-189.8 202.44,-189.8 202.44,-225.8"/>
<text text-anchor="middle" x="148" y="-203.6" font-family="Times,serif" font-size="14.00">AppComponent </text>
</g>
<!-- AppModule&#45;&gt;AppComponent  -->
<g id="edge3" class="edge">
<title>AppModule&#45;&gt;AppComponent </title>
<path fill="none" stroke="black" stroke-dasharray="1,5" d="M148,-160.91C148,-160.91 148,-179.79 148,-179.79"/>
<polygon fill="black" stroke="black" points="144.5,-179.79 148,-189.79 151.5,-179.79 144.5,-179.79"/>
</g>
<!-- AppRoutingModule -->
<g id="node3" class="node">
<title>AppRoutingModule</title>
<polygon fill="#8dd3c7" stroke="black" points="282.27,-84.8 279.27,-88.8 258.27,-88.8 255.27,-84.8 153.73,-84.8 153.73,-48.8 282.27,-48.8 282.27,-84.8"/>
<text text-anchor="middle" x="218" y="-62.6" font-family="Times,serif" font-size="14.00">AppRoutingModule</text>
</g>
<!-- AppRoutingModule&#45;&gt;AppModule -->
<g id="edge2" class="edge">
<title>AppRoutingModule&#45;&gt;AppModule</title>
<path fill="none" stroke="black" d="M171.72,-84.81C171.72,-84.81 171.72,-114.65 171.72,-114.65"/>
<polygon fill="black" stroke="black" points="168.22,-114.65 171.72,-124.65 175.22,-114.65 168.22,-114.65"/>
</g>
<!-- HomePage -->
<g id="node5" class="node">
<title>HomePage</title>
<polygon fill="#ffffb3" stroke="black" points="590.92,-160.8 513.08,-160.8 513.08,-124.8 590.92,-124.8 590.92,-160.8"/>
<text text-anchor="middle" x="552" y="-138.6" font-family="Times,serif" font-size="14.00">HomePage</text>
</g>
<!-- HomePageModule -->
<g id="node7" class="node">
<title>HomePageModule</title>
<polygon fill="#8dd3c7" stroke="black" points="612.47,-225.8 609.47,-229.8 588.47,-229.8 585.47,-225.8 491.53,-225.8 491.53,-189.8 612.47,-189.8 612.47,-225.8"/>
<text text-anchor="middle" x="552" y="-203.6" font-family="Times,serif" font-size="14.00">HomePageModule</text>
</g>
<!-- HomePage&#45;&gt;HomePageModule -->
<g id="edge4" class="edge">
<title>HomePage&#45;&gt;HomePageModule</title>
<path fill="none" stroke="black" d="M552,-160.91C552,-160.91 552,-179.79 552,-179.79"/>
<polygon fill="black" stroke="black" points="548.5,-179.79 552,-189.79 555.5,-179.79 548.5,-179.79"/>
</g>
<!-- SettingsPopoverComponent -->
<g id="node6" class="node">
<title>SettingsPopoverComponent</title>
<polygon fill="#ffffb3" stroke="black" points="495.6,-160.8 322.4,-160.8 322.4,-124.8 495.6,-124.8 495.6,-160.8"/>
<text text-anchor="middle" x="409" y="-138.6" font-family="Times,serif" font-size="14.00">SettingsPopoverComponent</text>
</g>
<!-- SettingsPopoverComponent&#45;&gt;HomePageModule -->
<g id="edge5" class="edge">
<title>SettingsPopoverComponent&#45;&gt;HomePageModule</title>
<path fill="none" stroke="black" d="M495.61,-142.8C501.07,-142.8 504.42,-142.8 504.42,-142.8 504.42,-142.8 504.42,-179.69 504.42,-179.69"/>
<polygon fill="black" stroke="black" points="500.92,-179.69 504.42,-189.69 507.92,-179.69 500.92,-179.69"/>
</g>
<!-- HomePageRoutingModule -->
<g id="node8" class="node">
<title>HomePageRoutingModule</title>
<polygon fill="#8dd3c7" stroke="black" points="781.09,-160.8 778.09,-164.8 757.09,-164.8 754.09,-160.8 614.91,-160.8 614.91,-124.8 781.09,-124.8 781.09,-160.8"/>
<text text-anchor="middle" x="698" y="-138.6" font-family="Times,serif" font-size="14.00">HomePageRoutingModule</text>
</g>
<!-- HomePageRoutingModule&#45;&gt;HomePageModule -->
<g id="edge6" class="edge">
<title>HomePageRoutingModule&#45;&gt;HomePageModule</title>
<path fill="none" stroke="black" d="M614.6,-142.8C606.72,-142.8 601.6,-142.8 601.6,-142.8 601.6,-142.8 601.6,-179.69 601.6,-179.69"/>
<polygon fill="black" stroke="black" points="598.1,-179.69 601.6,-189.69 605.1,-179.69 598.1,-179.69"/>
</g>
<!-- TimerService -->
<g id="node9" class="node">
<title>TimerService</title>
<ellipse fill="#fdb462" stroke="black" cx="698" cy="-66.8" rx="63.68" ry="18"/>
<text text-anchor="middle" x="698" y="-62.6" font-family="Times,serif" font-size="14.00">TimerService</text>
</g>
<!-- TimerService&#45;&gt;HomePageRoutingModule -->
<g id="edge7" class="edge">
<title>TimerService&#45;&gt;HomePageRoutingModule</title>
<path fill="none" stroke="black" d="M698,-84.81C698,-84.81 698,-114.65 698,-114.65"/>
<polygon fill="black" stroke="black" points="694.5,-114.65 698,-124.65 701.5,-114.65 694.5,-114.65"/>
</g>
</g>
</svg>
