<?xml version="1.0" encoding="UTF-8" standalone="no"?>
<!DOCTYPE svg PUBLIC "-//W3C//DTD SVG 1.1//EN"
 "http://www.w3.org/Graphics/SVG/1.1/DTD/svg11.dtd">
<!-- Generated by graphviz version 2.47.0 (20210316.0004)
 -->
<!-- Title: dependencies Pages: 1 -->
<svg width="813pt" height="295pt"
 viewBox="0.00 0.00 813.00 295.00" xmlns="http://www.w3.org/2000/svg" xmlns:xlink="http://www.w3.org/1999/xlink">
<g id="graph0" class="graph" transform="scale(1 1) rotate(0) translate(4 291)">
<title>dependencies</title>
<polygon fill="white" stroke="transparent" points="-4,4 -4,-291 809,-291 809,4 -4,4"/>
<text text-anchor="start" x="381.51" y="-42.4" font-family="sans-serif" font-weight="bold" font-size="14.00">Legend</text>
<polygon fill="#ffffb3" stroke="transparent" points="168.5,-10 168.5,-30 188.5,-30 188.5,-10 168.5,-10"/>
<text text-anchor="start" x="192.13" y="-15.4" font-family="sans-serif" font-size="14.00"> &#160;Declarations</text>
<polygon fill="#8dd3c7" stroke="transparent" points="281.5,-10 281.5,-30 301.5,-30 301.5,-10 281.5,-10"/>
<text text-anchor="start" x="305.23" y="-15.4" font-family="sans-serif" font-size="14.00"> &#160;Module</text>
<polygon fill="#80b1d3" stroke="transparent" points="367.5,-10 367.5,-30 387.5,-30 387.5,-10 367.5,-10"/>
<text text-anchor="start" x="391.28" y="-15.4" font-family="sans-serif" font-size="14.00"> &#160;Bootstrap</text>
<polygon fill="#fdb462" stroke="transparent" points="464.5,-10 464.5,-30 484.5,-30 484.5,-10 464.5,-10"/>
<text text-anchor="start" x="488.17" y="-15.4" font-family="sans-serif" font-size="14.00"> &#160;Providers</text>
<polygon fill="#fb8072" stroke="transparent" points="560.5,-10 560.5,-30 580.5,-30 580.5,-10 560.5,-10"/>
<text text-anchor="start" x="584.23" y="-15.4" font-family="sans-serif" font-size="14.00"> &#160;Exports</text>
<g id="clust14" class="cluster">
<title>cluster_HomePageModule</title>
<polygon fill="none" stroke="black" stroke-dasharray="1,5" points="306,-146 306,-271 797,-271 797,-146 306,-146"/>
</g>
<g id="clust18" class="cluster">
<title>cluster_HomePageModule_imports</title>
<polygon fill="none" stroke="black" points="607,-154 607,-206 789,-206 789,-154 607,-154"/>
</g>
<g id="clust15" class="cluster">
<title>cluster_HomePageModule_declarations</title>
<polygon fill="none" stroke="black" points="314,-154 314,-206 599,-206 599,-154 314,-154"/>
</g>
<g id="clust1" class="cluster">
<title>cluster_AppModule</title>
<polygon fill="none" stroke="black" stroke-dasharray="1,5" points="8,-70 8,-279 298,-279 298,-70 8,-70"/>
</g>
<g id="clust6" class="cluster">
<title>cluster_AppModule_bootstrap</title>
<polygon fill="none" stroke="black" points="96,-219 96,-271 220,-271 220,-219 96,-219"/>
</g>
<g id="clust2" class="cluster">
<title>cluster_AppModule_declarations</title>
<polygon fill="none" stroke="black" points="168,-78 168,-130 290,-130 290,-78 168,-78"/>
</g>
<g id="clust4" class="cluster">
<title>cluster_AppModule_imports</title>
<polygon fill="none" stroke="black" points="16,-78 16,-130 160,-130 160,-78 16,-78"/>
</g>
<g id="clust22" class="cluster">
<title>cluster_HomePageRoutingModule</title>
<polygon fill="none" stroke="black" stroke-dasharray="1,5" points="618,-70 618,-138 778,-138 778,-70 618,-70"/>
</g>
<g id="clust27" class="cluster">
<title>cluster_HomePageRoutingModule_providers</title>
<polygon fill="none" stroke="black" points="626,-78 626,-130 770,-130 770,-78 626,-78"/>
</g>
<!-- AppComponent -->
<g id="node1" class="node">
<title>AppComponent</title>
<polygon fill="#ffffb3" stroke="black" points="281.94,-122 176.06,-122 176.06,-86 281.94,-86 281.94,-122"/>
<text text-anchor="middle" x="229" y="-99.8" font-family="Times,serif" font-size="14.00">AppComponent</text>
</g>
<!-- AppModule -->
<g id="node2" class="node">
<title>AppModule</title>
<polygon fill="#8dd3c7" stroke="black" points="199.66,-198 196.66,-202 175.66,-202 172.66,-198 116.34,-198 116.34,-162 199.66,-162 199.66,-198"/>
<text text-anchor="middle" x="158" y="-175.8" font-family="Times,serif" font-size="14.00">AppModule</text>
</g>
<!-- AppComponent&#45;&gt;AppModule -->
<g id="edge1" class="edge">
<title>AppComponent&#45;&gt;AppModule</title>
<path fill="none" stroke="black" d="M188.05,-122.01C188.05,-122.01 188.05,-151.85 188.05,-151.85"/>
<polygon fill="black" stroke="black" points="184.55,-151.85 188.05,-161.85 191.55,-151.85 184.55,-151.85"/>
</g>
<!-- AppComponent  -->
<g id="node4" class="node">
<title>AppComponent </title>
<polygon fill="#80b1d3" stroke="black" points="212.44,-263 103.56,-263 103.56,-227 212.44,-227 212.44,-263"/>
<text text-anchor="middle" x="158" y="-240.8" font-family="Times,serif" font-size="14.00">AppComponent </text>
</g>
<!-- AppModule&#45;&gt;AppComponent  -->
<g id="edge3" class="edge">
<title>AppModule&#45;&gt;AppComponent </title>
<path fill="none" stroke="black" stroke-dasharray="1,5" d="M158,-198.11C158,-198.11 158,-216.99 158,-216.99"/>
<polygon fill="black" stroke="black" points="154.5,-216.99 158,-226.99 161.5,-216.99 154.5,-216.99"/>
</g>
<!-- AppRoutingModule -->
<g id="node3" class="node">
<title>AppRoutingModule</title>
<polygon fill="#8dd3c7" stroke="black" points="152.27,-122 149.27,-126 128.27,-126 125.27,-122 23.73,-122 23.73,-86 152.27,-86 152.27,-122"/>
<text text-anchor="middle" x="88" y="-99.8" font-family="Times,serif" font-size="14.00">AppRoutingModule</text>
</g>
<!-- AppRoutingModule&#45;&gt;AppModule -->
<g id="edge2" class="edge">
<title>AppRoutingModule&#45;&gt;AppModule</title>
<path fill="none" stroke="black" d="M134.28,-122.01C134.28,-122.01 134.28,-151.85 134.28,-151.85"/>
<polygon fill="black" stroke="black" points="130.78,-151.85 134.28,-161.85 137.78,-151.85 130.78,-151.85"/>
</g>
<!-- HomePage -->
<g id="node5" class="node">
<title>HomePage</title>
<polygon fill="#ffffb3" stroke="black" points="590.92,-198 513.08,-198 513.08,-162 590.92,-162 590.92,-198"/>
<text text-anchor="middle" x="552" y="-175.8" font-family="Times,serif" font-size="14.00">HomePage</text>
</g>
<!-- HomePageModule -->
<g id="node7" class="node">
<title>HomePageModule</title>
<polygon fill="#8dd3c7" stroke="black" points="612.47,-263 609.47,-267 588.47,-267 585.47,-263 491.53,-263 491.53,-227 612.47,-227 612.47,-263"/>
<text text-anchor="middle" x="552" y="-240.8" font-family="Times,serif" font-size="14.00">HomePageModule</text>
</g>
<!-- HomePage&#45;&gt;HomePageModule -->
<g id="edge4" class="edge">
<title>HomePage&#45;&gt;HomePageModule</title>
<path fill="none" stroke="black" d="M552,-198.11C552,-198.11 552,-216.99 552,-216.99"/>
<polygon fill="black" stroke="black" points="548.5,-216.99 552,-226.99 555.5,-216.99 548.5,-216.99"/>
</g>
<!-- SettingsPopoverComponent -->
<g id="node6" class="node">
<title>SettingsPopoverComponent</title>
<polygon fill="#ffffb3" stroke="black" points="495.6,-198 322.4,-198 322.4,-162 495.6,-162 495.6,-198"/>
<text text-anchor="middle" x="409" y="-175.8" font-family="Times,serif" font-size="14.00">SettingsPopoverComponent</text>
</g>
<!-- SettingsPopoverComponent&#45;&gt;HomePageModule -->
<g id="edge5" class="edge">
<title>SettingsPopoverComponent&#45;&gt;HomePageModule</title>
<path fill="none" stroke="black" d="M495.61,-180C501.07,-180 504.42,-180 504.42,-180 504.42,-180 504.42,-216.89 504.42,-216.89"/>
<polygon fill="black" stroke="black" points="500.92,-216.89 504.42,-226.89 507.92,-216.89 500.92,-216.89"/>
</g>
<!-- HomePageRoutingModule -->
<g id="node8" class="node">
<title>HomePageRoutingModule</title>
<polygon fill="#8dd3c7" stroke="black" points="781.09,-198 778.09,-202 757.09,-202 754.09,-198 614.91,-198 614.91,-162 781.09,-162 781.09,-198"/>
<text text-anchor="middle" x="698" y="-175.8" font-family="Times,serif" font-size="14.00">HomePageRoutingModule</text>
</g>
<!-- HomePageRoutingModule&#45;&gt;HomePageModule -->
<g id="edge6" class="edge">
<title>HomePageRoutingModule&#45;&gt;HomePageModule</title>
<path fill="none" stroke="black" d="M614.6,-180C606.72,-180 601.6,-180 601.6,-180 601.6,-180 601.6,-216.89 601.6,-216.89"/>
<polygon fill="black" stroke="black" points="598.1,-216.89 601.6,-226.89 605.1,-216.89 598.1,-216.89"/>
</g>
<!-- TimerService -->
<g id="node9" class="node">
<title>TimerService</title>
<ellipse fill="#fdb462" stroke="black" cx="698" cy="-104" rx="63.68" ry="18"/>
<text text-anchor="middle" x="698" y="-99.8" font-family="Times,serif" font-size="14.00">TimerService</text>
</g>
<!-- TimerService&#45;&gt;HomePageRoutingModule -->
<g id="edge7" class="edge">
<title>TimerService&#45;&gt;HomePageRoutingModule</title>
<path fill="none" stroke="black" d="M698,-122.01C698,-122.01 698,-151.85 698,-151.85"/>
<polygon fill="black" stroke="black" points="694.5,-151.85 698,-161.85 701.5,-151.85 694.5,-151.85"/>
</g>
</g>
</svg>
