<?xml version="1.0" encoding="UTF-8" standalone="no"?>
<!DOCTYPE svg PUBLIC "-//W3C//DTD SVG 1.1//EN"
 "http://www.w3.org/Graphics/SVG/1.1/DTD/svg11.dtd">
<!-- Generated by graphviz version 2.47.3 (20210619.1520)
 -->
<!-- Title: dependencies Pages: 1 -->
<svg width="515pt" height="174pt"
 viewBox="0.00 0.00 515.00 173.80" xmlns="http://www.w3.org/2000/svg" xmlns:xlink="http://www.w3.org/1999/xlink">
<g id="graph0" class="graph" transform="scale(1 1) rotate(0) translate(4 169.8)">
<title>dependencies</title>
<polygon fill="white" stroke="transparent" points="-4,4 -4,-169.8 511,-169.8 511,4 -4,4"/>
<text text-anchor="middle" x="253.5" y="-8.2" font-family="sans-serif" font-size="14.00">dependencies</text>
<g id="clust1" class="cluster">
<title>cluster_HomePageModule</title>
<polygon fill="none" stroke="black" stroke-dasharray="1,5" points="8,-32.8 8,-157.8 499,-157.8 499,-32.8 8,-32.8"/>
</g>
<g id="clust2" class="cluster">
<title>cluster_HomePageModule_declarations</title>
<polygon fill="none" stroke="black" points="206,-40.8 206,-92.8 491,-92.8 491,-40.8 206,-40.8"/>
</g>
<g id="clust5" class="cluster">
<title>cluster_HomePageModule_imports</title>
<polygon fill="none" stroke="black" points="16,-40.8 16,-92.8 198,-92.8 198,-40.8 16,-40.8"/>
</g>
<!-- HomePage -->
<g id="node1" class="node">
<title>HomePage</title>
<polygon fill="#ffffb3" stroke="black" points="482.92,-84.8 405.08,-84.8 405.08,-48.8 482.92,-48.8 482.92,-84.8"/>
<text text-anchor="middle" x="444" y="-62.6" font-family="Times,serif" font-size="14.00">HomePage</text>
</g>
<!-- HomePageModule -->
<g id="node3" class="node">
<title>HomePageModule</title>
<polygon fill="#8dd3c7" stroke="black" points="361.47,-149.8 358.47,-153.8 337.47,-153.8 334.47,-149.8 240.53,-149.8 240.53,-113.8 361.47,-113.8 361.47,-149.8"/>
<text text-anchor="middle" x="301" y="-127.6" font-family="Times,serif" font-size="14.00">HomePageModule</text>
</g>
<!-- HomePage&#45;&gt;HomePageModule -->
<g id="edge1" class="edge">
<title>HomePage&#45;&gt;HomePageModule</title>
<path fill="none" stroke="black" d="M444,-84.91C444,-104.14 444,-131.8 444,-131.8 444,-131.8 371.64,-131.8 371.64,-131.8"/>
<polygon fill="black" stroke="black" points="371.64,-128.3 361.64,-131.8 371.64,-135.3 371.64,-128.3"/>
</g>
<!-- SettingsPopoverComponent -->
<g id="node2" class="node">
<title>SettingsPopoverComponent</title>
<polygon fill="#ffffb3" stroke="black" points="387.6,-84.8 214.4,-84.8 214.4,-48.8 387.6,-48.8 387.6,-84.8"/>
<text text-anchor="middle" x="301" y="-62.6" font-family="Times,serif" font-size="14.00">SettingsPopoverComponent</text>
</g>
<!-- SettingsPopoverComponent&#45;&gt;HomePageModule -->
<g id="edge2" class="edge">
<title>SettingsPopoverComponent&#45;&gt;HomePageModule</title>
<path fill="none" stroke="black" d="M301,-84.91C301,-84.91 301,-103.79 301,-103.79"/>
<polygon fill="black" stroke="black" points="297.5,-103.79 301,-113.79 304.5,-103.79 297.5,-103.79"/>
</g>
<!-- HomePageRoutingModule -->
<g id="node4" class="node">
<title>HomePageRoutingModule</title>
<polygon fill="#8dd3c7" stroke="black" points="190.09,-84.8 187.09,-88.8 166.09,-88.8 163.09,-84.8 23.91,-84.8 23.91,-48.8 190.09,-48.8 190.09,-84.8"/>
<text text-anchor="middle" x="107" y="-62.6" font-family="Times,serif" font-size="14.00">HomePageRoutingModule</text>
</g>
<!-- HomePageRoutingModule&#45;&gt;HomePageModule -->
<g id="edge3" class="edge">
<title>HomePageRoutingModule&#45;&gt;HomePageModule</title>
<path fill="none" stroke="black" d="M107,-84.91C107,-104.14 107,-131.8 107,-131.8 107,-131.8 230.42,-131.8 230.42,-131.8"/>
<polygon fill="black" stroke="black" points="230.42,-135.3 240.42,-131.8 230.42,-128.3 230.42,-135.3"/>
</g>
</g>
</svg>
